<?xml version="1.0" encoding="UTF-8"?>
<svg xmlns="http://www.w3.org/2000/svg" viewBox="0 0 500 500" font-family="Inter, sans-serif">
  <defs>
    <linearGradient id="triqhub-grad" x1="0" y1="0" x2="1" y2="1">
      <stop offset="0%" stop-color="#22D3EE"/>
      <stop offset="50%" stop-color="#3B82F6"/>
      <stop offset="100%" stop-color="#7C3AED"/>
    </linearGradient>
  </defs>
  <rect width="500" height="500" fill="#FFFFFF"/>
  <text x="20" y="20" font-family="Inter, sans-serif" font-size="13" font-weight="700" fill="#0F172A">Cobertura por Módulo · 10 piores (gate 90%)</text>
  <path d="M 250.0 110.0 A 140 140 0 0 1 330.00838131170974 135.11458351957788 L 295.71907503526273 184.3511905826159 A 80 80 0 0 0 250.0 170.0 Z" fill="#B91C1C" stroke="#FFFFFF" stroke-width="2"/><path d="M 332.28993532094626 136.73762078750735 A 140 140 0 0 1 382.2560936842749 204.08349225631054 L 325.57491067672856 223.7619955750346 A 80 80 0 0 0 297.02282018339787 185.27864045000422 Z" fill="#B91C1C" stroke="#FFFFFF" stroke-width="2"/><path d="M 383.1479122813215 206.73762078750735 A 140 140 0 0 1 383.9864734887374 290.59094630643483 L 326.56369913642135 273.1948264608199 A 80 80 0 0 0 326.0845213036123 225.27864045000422 Z" fill="#DC2626" stroke="#FFFFFF" stroke-width="2"/><path d="M 383.1479122813215 293.26237921249265 A 140 140 0 0 1 334.5385744532389 361.59403850302306 L 298.3077568304222 313.76802200172745 A 80 80 0 0 0 326.0845213036123 274.7213595499958 Z" fill="#EA580C" stroke="#FFFFFF" stroke-width="2"/><path d="M 332.28993532094626 363.26237921249265 A 140 140 0 0 1 252.79981333706664 389.9720009333209 L 251.59989333546665 329.98400053332625 A 80 80 0 0 0 297.02282018339787 314.7213595499958 Z" fill="#EA580C" stroke="#FFFFFF" stroke-width="2"/><path d="M 250.0 390.0 A 140 140 0 0 1 169.99161868829026 364.8854164804221 L 204.28092496473727 315.6488094173841 A 80 80 0 0 0 250.0 330.0 Z" fill="#EA580C" stroke="#FFFFFF" stroke-width="2"/><path d="M 167.71006467905377 363.26237921249265 A 140 140 0 0 1 117.74390631572507 295.91650774368946 L 174.42508932327146 276.2380044249654 A 80 80 0 0 0 202.97717981660216 314.7213595499958 Z" fill="#F59E0B" stroke="#FFFFFF" stroke-width="2"/><path d="M 116.85208771867852 293.26237921249265 A 140 140 0 0 1 116.01352651126263 209.40905369356517 L 173.43630086357865 226.8051735391801 A 80 80 0 0 0 173.9154786963877 274.7213595499958 Z" fill="#F59E0B" stroke="#FFFFFF" stroke-width="2"/><path d="M 116.85208771867849 206.73762078750738 A 140 140 0 0 1 165.46142554676118 138.40596149697691 L 201.6922431695778 186.23197799827253 A 80 80 0 0 0 173.9154786963877 225.27864045000422 Z" fill="#F59E0B" stroke="#FFFFFF" stroke-width="2"/><path d="M 167.71006467905374 136.73762078750735 A 140 140 0 0 1 247.2001866629334 110.02799906667912 L 248.40010666453338 170.01599946667378 A 80 80 0 0 0 202.97717981660213 185.27864045000422 Z" fill="#F59E0B" stroke="#FFFFFF" stroke-width="2"/>
  
  <text x="250" y="230" font-family="Inter, sans-serif" font-size="36" font-weight="700" fill="#0F172A" text-anchor="middle">87%</text>
  <text x="250" y="254" font-family="Inter, sans-serif" font-size="11" fill="#475569" text-anchor="middle">cobertura total</text>
  <text x="250" y="272" font-family="Inter, sans-serif" font-size="10" fill="#B91C1C" text-anchor="middle" font-weight="600">gate 90% quebrado</text>
  <text x="297.31959964594637" y="99.25234499552786" font-family="Inter, sans-serif" font-size="10" fill="#0F172A" text-anchor="start" font-weight="600">21%</text><text x="297.31959964594637" y="111.25234499552786" font-family="Inter, sans-serif" font-size="8" fill="#475569" text-anchor="start">atendimentos.py</text><text x="376.8896087098917" y="155.85634805548187" font-family="Inter, sans-serif" font-size="10" fill="#0F172A" text-anchor="start" font-weight="600">25%</text><text x="376.8896087098917" y="167.85634805548187" font-family="Inter, sans-serif" font-size="8" fill="#475569" text-anchor="start">websocket_manager.py</text><text x="407.99210006583314" y="248.42002633320166" font-family="Inter, sans-serif" font-size="10" fill="#0F172A" text-anchor="start" font-weight="600">43%</text><text x="407.99210006583314" y="260.4200263332017" font-family="Inter, sans-serif" font-size="8" fill="#475569" text-anchor="start">deprecation.py</text><text x="378.74697915060074" y="341.5872008503086" font-family="Inter, sans-serif" font-size="10" fill="#0F172A" text-anchor="start" font-weight="600">46%</text><text x="378.74697915060074" y="353.5872008503086" font-family="Inter, sans-serif" font-size="8" fill="#475569" text-anchor="start">protocolos.py</text><text x="300.324888148713" y="399.77117757706094" font-family="Inter, sans-serif" font-size="10" fill="#0F172A" text-anchor="start" font-weight="600">47%</text><text x="300.324888148713" y="411.77117757706094" font-family="Inter, sans-serif" font-size="8" fill="#475569" text-anchor="start">cursor.py</text><text x="202.68040035405363" y="400.7476550044721" font-family="Inter, sans-serif" font-size="10" fill="#0F172A" text-anchor="end" font-weight="600">53%</text><text x="202.68040035405363" y="412.7476550044721" font-family="Inter, sans-serif" font-size="8" fill="#475569" text-anchor="end">clientes.py</text><text x="123.11039129010828" y="344.1436519445181" font-family="Inter, sans-serif" font-size="10" fill="#0F172A" text-anchor="end" font-weight="600">57%</text><text x="123.11039129010828" y="356.1436519445181" font-family="Inter, sans-serif" font-size="8" fill="#475569" text-anchor="end">jules.py</text><text x="92.00789993416689" y="251.5799736667983" font-family="Inter, sans-serif" font-size="10" fill="#0F172A" text-anchor="end" font-weight="600">59%</text><text x="92.00789993416689" y="263.5799736667983" font-family="Inter, sans-serif" font-size="8" fill="#475569" text-anchor="end">emolumento.py</text><text x="121.25302084939923" y="158.41279914969135" font-family="Inter, sans-serif" font-size="10" fill="#0F172A" text-anchor="end" font-weight="600">63%</text><text x="121.25302084939923" y="170.41279914969135" font-family="Inter, sans-serif" font-size="8" fill="#475569" text-anchor="end">integrations.py</text><text x="199.67511185128703" y="100.22882242293903" font-family="Inter, sans-serif" font-size="10" fill="#0F172A" text-anchor="end" font-weight="600">65%</text><text x="199.67511185128703" y="112.22882242293903" font-family="Inter, sans-serif" font-size="8" fill="#475569" text-anchor="end">brain.py</text>
</svg>